<svg height="512pt" viewBox="-32 0 512 512" width="512pt" xmlns="http://www.w3.org/2000/svg"><path d="m416 40v32h-152l-32-32zm0 0" fill="#f7c292"/><path d="m216 72h-184v-32h152zm0 0" fill="#f7c292"/><path d="m296 104h-48l-96-96h48zm0 0" fill="#ffd2a6"/><path d="m152 240c0-35.359375 28.640625-64 64-64h48v32c17.679688 0 32 14.320312 32 32v24l-24-16.238281s-16.078125 8-44 8-52-8-52-8l-24 16.238281zm0 0" fill="#656d78"/><path d="m264 208v-32h-32v48c17.679688 0 32 6.320312 32 24v2.71875c5.144531-1.589844 8-2.957031 8-2.957031l24 16.238281v-24c0-17.679688-14.320312-32-32-32zm0 0" fill="#434a54"/><path d="m296 264.238281v31.761719c0 28.238281-16.320312 52.71875-40 64.480469-9.601562 4.800781-20.558594 7.519531-32 7.519531-11.519531 0-22.398438-2.71875-32-7.519531-23.679688-11.761719-40-36.234375-40-64.480469v-31.761719l24-16.238281s24.078125 8 52 8 44-8 44-8zm0 0" fill="#eac6bb"/><path d="m272 248s-2.855469 1.367188-8 2.953125v45.046875c0 28.238281-16.320312 52.71875-40 64.480469-5.007812 2.503906-10.398438 4.40625-16.015625 5.6875 5.152344 1.175781 10.503906 1.832031 16.015625 1.832031 11.441406 0 22.398438-2.71875 32-7.519531 23.679688-11.761719 40-36.234375 40-64.480469v-31.761719zm0 0" fill="#d3b1a9"/><path d="m224 368c11.441406 0 22.398438-2.71875 32-7.519531v23.519531l-16 16-16-8-16 8-16-16v-23.519531c9.601562 4.800781 20.480469 7.519531 32 7.519531zm0 0" fill="#f5f7fa"/><path d="m392 384.640625c-2.558594-.480469-5.28125-.640625-8-.640625h-128l-16 16-16-8-16 8-16-16h-128c-30.960938 0-56 25.039062-56 56v4c0 11.039062 8.960938 20 20 20s20-8.960938 20-20v-4c0-8.878906 7.199219-16 16-16h88v80h144v-80h88c.558594 0 1.121094 0 1.601562.078125 8.078126.800781 14.398438 7.601563 14.398438 15.921875v4c0 11.039062 8.960938 20 20 20s20-8.960938 20-20v-4c0-28.238281-20.800781-51.519531-48-55.359375zm0 0" fill="#5d9cec"/><path d="m224 376c-44.113281 0-80-35.886719-80-80 0-4.425781 3.574219-8 8-8s8 3.574219 8 8c0 35.289062 28.710938 64 64 64s64-28.710938 64-64c0-4.425781 3.574219-8 8-8s8 3.574219 8 8c0 44.113281-35.886719 80-80 80zm0 0"/><path d="m152 304c-4.425781 0-8-3.574219-8-8v-56c0-4.425781 3.574219-8 8-8s8 3.574219 8 8v56c0 4.425781-3.574219 8-8 8zm0 0"/><path d="m296 304c-4.425781 0-8-3.574219-8-8v-56.007812c0-4.425782 3.574219-8 8-8s8 3.574218 8 8v56.007812c0 4.425781-3.574219 8-8 8zm0 0"/><path d="m152 512c-4.425781 0-8-3.574219-8-8v-80c0-4.425781 3.574219-8 8-8s8 3.574219 8 8v80c0 4.425781-3.574219 8-8 8zm0 0"/><path d="m296 512c-4.425781 0-8-3.574219-8-8v-80c0-4.425781 3.574219-8 8-8s8 3.574219 8 8v80c0 4.425781-3.574219 8-8 8zm0 0"/><path d="m192 392c-4.425781 0-8-3.574219-8-8v-23.496094c0-4.425781 3.574219-8 8-8s8 3.574219 8 8v23.496094c0 4.425781-3.574219 8-8 8zm0 0"/><path d="m256 392c-4.425781 0-8-3.574219-8-8v-23.496094c0-4.425781 3.574219-8 8-8s8 3.574219 8 8v23.496094c0 4.425781-3.574219 8-8 8zm0 0"/><path d="m399.992188 448c-4.425782 0-8-3.574219-8-8 0-4.414062-3.585938-8-8-8-4.425782 0-8-3.574219-8-8s3.574218-8 8-8c13.230468 0 24 10.769531 24 24 0 4.425781-3.578126 8-8 8zm0 0"/><path d="m440 448c-4.425781 0-8-3.574219-8-8 0-26.472656-21.527344-48-48-48-4.425781 0-8-3.574219-8-8s3.574219-8 8-8c35.289062 0 64 28.710938 64 64 0 4.425781-3.574219 8-8 8zm0 0"/><path d="m420 472c-15.441406 0-28-12.558594-28-28 0-4.425781 3.574219-8 8-8s8 3.574219 8 8c0 6.617188 5.382812 12 12 12s12-5.382812 12-12c0-4.425781 3.574219-8 8-8s8 3.574219 8 8c0 15.441406-12.558594 28-28 28zm0 0"/><path d="m440 452c-4.425781 0-8-3.574219-8-8v-4c0-4.425781 3.574219-8 8-8s8 3.574219 8 8v4c0 4.425781-3.574219 8-8 8zm0 0"/><path d="m400 452c-4.425781 0-8-3.574219-8-8v-4c0-4.425781 3.574219-8 8-8s8 3.574219 8 8v4c0 4.425781-3.574219 8-8 8zm0 0"/><path d="m384 392.007812h-128c-4.425781 0-8-3.574218-8-8 0-4.421874 3.574219-8 8-8h128c4.425781 0 8 3.578126 8 8 0 4.425782-3.574219 8-8 8zm0 0"/><path d="m384 432h-87.480469c-4.421875 0-8-3.574219-8-8s3.578125-8 8-8h87.480469c4.425781 0 8 3.574219 8 8s-3.574219 8-8 8zm0 0"/><path d="m48.007812 448c-4.421874 0-8-3.574219-8-8 0-13.230469 10.769532-24 24-24 4.425782 0 8 3.574219 8 8s-3.574218 8-8 8c-4.414062 0-8 3.585938-8 8 0 4.425781-3.574218 8-8 8zm0 0"/><path d="m8 448c-4.425781 0-8-3.574219-8-8 0-35.289062 28.710938-64 64-64 4.425781 0 8 3.574219 8 8s-3.574219 8-8 8c-26.472656 0-48 21.527344-48 48 0 4.425781-3.574219 8-8 8zm0 0"/><path d="m28 472c-15.441406 0-28-12.558594-28-28 0-4.425781 3.574219-8 8-8s8 3.574219 8 8c0 6.617188 5.382812 12 12 12s12-5.382812 12-12c0-4.425781 3.574219-8 8-8s8 3.574219 8 8c0 15.441406-12.558594 28-28 28zm0 0"/><path d="m8 452c-4.425781 0-8-3.574219-8-8v-4c0-4.425781 3.574219-8 8-8s8 3.574219 8 8v4c0 4.425781-3.574219 8-8 8zm0 0"/><path d="m48 452c-4.425781 0-8-3.574219-8-8v-4c0-4.425781 3.574219-8 8-8s8 3.574219 8 8v4c0 4.425781-3.574219 8-8 8zm0 0"/><path d="m192 392.007812h-128c-4.425781 0-8-3.574218-8-8 0-4.421874 3.574219-8 8-8h128c4.425781 0 8 3.578126 8 8 0 4.425782-3.574219 8-8 8zm0 0"/><path d="m151.480469 432h-87.480469c-4.425781 0-8-3.574219-8-8s3.574219-8 8-8h87.480469c4.421875 0 8 3.574219 8 8s-3.585938 8-8 8zm0 0"/><path d="m296 247.992188c-4.425781 0-8-3.578126-8-8 0-13.222657-10.769531-23.992188-24-23.992188-4.425781 0-8-3.574219-8-8s3.574219-8 8-8c22.054688 0 40 17.9375 40 39.992188 0 4.421874-3.574219 8-8 8zm0 0"/><path d="m264 216c-4.425781 0-8-3.574219-8-8v-32c0-4.425781 3.574219-8 8-8s8 3.574219 8 8v32c0 4.425781-3.574219 8-8 8zm0 0"/><path d="m152 248c-4.425781 0-8-3.574219-8-8 0-39.703125 32.296875-72 72-72 4.425781 0 8 3.574219 8 8s-3.574219 8-8 8c-30.871094 0-56 25.128906-56 56 0 4.425781-3.574219 8-8 8zm0 0"/><path d="m295.992188 272.199219c-1.535157 0-3.097657-.445313-4.472657-1.367188l-24-16.199219c-3.664062-2.480468-4.625-7.449218-2.160156-11.113281 2.480469-3.65625 7.441406-4.617187 11.113281-2.160156l24 16.199219c3.664063 2.480468 4.625 7.449218 2.160156 11.113281-1.542968 2.296875-4.074218 3.527344-6.640624 3.527344zm0 0"/><path d="m228 264c-28.894531 0-53.496094-8.0625-54.519531-8.40625-4.183594-1.402344-6.457031-5.921875-5.074219-10.113281 1.394531-4.183594 5.921875-6.472657 10.113281-5.082031.234375.089843 23.265625 7.601562 49.480469 7.601562 25.425781 0 40.320312-7.105469 40.472656-7.175781 3.941406-1.921875 8.75-.296875 10.695313 3.65625 1.945312 3.953125.34375 8.71875-3.59375 10.6875-.734375.351562-18.085938 8.832031-47.574219 8.832031zm0 0"/><path d="m152.007812 272.199219c-2.566406 0-5.097656-1.230469-6.640624-3.519531-2.472657-3.664063-1.503907-8.632813 2.160156-11.113282l24-16.199218c3.679687-2.464844 8.640625-1.503907 11.113281 2.160156 2.472656 3.664062 1.503906 8.632812-2.160156 11.113281l-24 16.199219c-1.375.921875-2.9375 1.359375-4.472657 1.359375zm0 0"/><path d="m264 184h-48c-4.425781 0-8-3.574219-8-8s3.574219-8 8-8h48c4.425781 0 8 3.574219 8 8s-3.574219 8-8 8zm0 0"/><path d="m384 432c-4.425781 0-8-3.574219-8-8v-352c0-4.425781 3.574219-8 8-8s8 3.574219 8 8v352c0 4.425781-3.574219 8-8 8zm0 0"/><path d="m64 432c-4.425781 0-8-3.574219-8-8v-352c0-4.425781 3.574219-8 8-8s8 3.574219 8 8v352c0 4.425781-3.574219 8-8 8zm0 0"/><path d="m216 80h-184c-4.425781 0-8-3.574219-8-8v-32c0-4.425781 3.574219-8 8-8h152c4.425781 0 8 3.574219 8 8s-3.574219 8-8 8h-144v16h176c4.425781 0 8 3.574219 8 8s-3.574219 8-8 8zm0 0"/><path d="m416 80h-152c-4.425781 0-8-3.574219-8-8s3.574219-8 8-8h144v-16h-176c-4.425781 0-8-3.574219-8-8s3.574219-8 8-8h184c4.425781 0 8 3.574219 8 8v32c0 4.425781-3.574219 8-8 8zm0 0"/><path d="m296 112h-48c-2.128906 0-4.160156-.839844-5.65625-2.34375l-96-96c-2.289062-2.289062-2.976562-5.726562-1.734375-8.71875 1.230469-2.992188 4.160156-4.9375 7.390625-4.9375h48c2.128906 0 4.160156.839844 5.65625 2.34375l96 96c2.289062 2.289062 2.976562 5.726562 1.734375 8.71875-1.230469 2.992188-4.160156 4.9375-7.390625 4.9375zm-44.6875-16h25.375l-80-80h-25.375zm0 0"/><path d="m224 184c-4.425781 0-8-3.574219-8-8v-91.199219c0-4.425781 3.574219-8 8-8s8 3.574219 8 8v91.199219c0 4.425781-3.574219 8-8 8zm0 0"/><path d="m224.238281 448c-4.421875 0-8.039062-3.574219-8.039062-8s3.535156-8 7.953125-8h.085937c4.417969 0 8 3.574219 8 8s-3.582031 8-8 8zm0 0"/><path d="m224.238281 488c-4.421875 0-8.039062-3.574219-8.039062-8s3.535156-8 7.953125-8h.085937c4.417969 0 8 3.574219 8 8s-3.582031 8-8 8zm0 0"/><path d="m240 408c-2.046875 0-4.097656-.785156-5.65625-2.34375-3.128906-3.128906-3.128906-8.183594 0-11.3125l16-16c3.128906-3.128906 8.183594-3.128906 11.3125 0s3.128906 8.183594 0 11.3125l-16 16c-1.558594 1.558594-3.609375 2.34375-5.65625 2.34375zm0 0"/><path d="m239.992188 408c-1.199219 0-2.425782-.273438-3.566407-.839844l-16-8c-3.953125-1.976562-5.554687-6.785156-3.578125-10.734375 1.984375-3.953125 6.792969-5.546875 10.738282-3.578125l16 8c3.949218 1.976563 5.550781 6.785156 3.574218 10.738282-1.40625 2.796874-4.230468 4.414062-7.167968 4.414062zm0 0"/><path d="m208.007812 408c-2.9375 0-5.761718-1.617188-7.167968-4.425781-1.976563-3.949219-.375-8.757813 3.574218-10.734375l16-8c3.945313-1.96875 8.753907-.375 10.738282 3.574218 1.976562 3.953126.375 8.761719-3.578125 10.738282l-16 8c-1.140625.574218-2.367188.847656-3.566407.847656zm0 0"/><path d="m208 408c-2.046875 0-4.097656-.785156-5.65625-2.34375l-16-16c-3.128906-3.128906-3.128906-8.183594 0-11.3125s8.183594-3.128906 11.3125 0l16 16c3.128906 3.128906 3.128906 8.183594 0 11.3125-1.558594 1.558594-3.609375 2.34375-5.65625 2.34375zm0 0"/></svg>